<svg xmlns="http://www.w3.org/2000/svg" xmlns:xlink="http://www.w3.org/1999/xlink" data-name="Layer 1" width="444" height="587.86116" viewBox="0 0 904.51179 587.86116"><path d="M1030.2993,494.26144h-24.31753a2.28111,2.28111,0,0,1,0-4.56221h24.31753a2.28111,2.28111,0,0,1,0,4.56221Z" transform="translate(-147.74411 -156.06942)" fill="#fff"/><path d="M1030.2993,486.26144h-24.31753a2.28111,2.28111,0,0,1,0-4.56221h24.31753a2.28111,2.28111,0,0,1,0,4.56221Z" transform="translate(-147.74411 -156.06942)" fill="#fff"/><circle cx="246.14815" cy="186.83946" r="169" fill="#f2f2f2"/><circle cx="442.14815" cy="318.83946" r="32" fill="#f2f2f2"/><circle cx="603.14815" cy="409.83946" r="13" fill="#f2f2f2"/><path d="M851.26623,617.03957c-5.48227-41.89209-31.72983-83.03451-71.80138-96.42224a194.65881,194.65881,0,0,1,.84589,133.64365c-6.03764,16.65872-14.48752,34.55857-8.601,51.2714,3.66252,10.3992,12.51019,18.31678,22.375,23.23971,9.86539,4.92293,20.7937,7.22943,31.58512,9.48926l2.13212,1.74051C844.66219,701.26258,856.74849,658.93165,851.26623,617.03957Z" transform="translate(-147.74411 -156.06942)" fill="#f2f2f2"/><path d="M779.07315,521.41262A166.38078,166.38078,0,0,1,821.03373,614.785c.77448,7.452.91159,15.0788-.67137,22.439A41.09416,41.09416,0,0,1,810.264,656.34932c-4.57415,5.09072-9.84254,9.76827-13.09956,15.88225-3.43308,6.44445-3.51986,13.74226-1.09777,20.54873,2.96348,8.32791,8.74259,15.09434,14.624,21.51494,6.53021,7.12885,13.426,14.43,16.24318,23.91839.34134,1.14965,2.10524.55278,1.76442-.59513-4.9014-16.50811-21.01635-25.7997-28.76822-40.647-3.61716-6.928-5.1684-14.98807-1.866-22.34688,2.88776-6.435,8.31644-11.26314,12.99242-16.37757,4.90986-5.37024,8.66318-11.25191,10.5708-18.33254,1.95139-7.24308,2.11217-14.89135,1.53161-22.33044a161.41915,161.41915,0,0,0-12.10288-48.97743,169.33088,169.33088,0,0,0-30.75964-48.59845c-.80186-.88642-2.01977.52378-1.22315,1.40441Z" transform="translate(-147.74411 -156.06942)" fill="#fff"/><path d="M820.46039,603.51974a24.96242,24.96242,0,0,0,18.83354-26.27016c-.10252-1.19368-1.96226-1.09045-1.8596.10482a23.11466,23.11466,0,0,1-17.56907,24.40092c-1.16391.2846-.56212,2.04739.59513,1.76442Z" transform="translate(-147.74411 -156.06942)" fill="#fff"/><path d="M812.92321,654.07358a48.11307,48.11307,0,0,1-21.6623-27.57147c-.3454-1.1484-2.1094-.55188-1.76442.59513a50.04481,50.04481,0,0,0,22.5999,28.64479c1.03645.60587,1.85764-1.06587.82682-1.66845Z" transform="translate(-147.74411 -156.06942)" fill="#fff"/><path d="M801.9328,552.54666a14.12991,14.12991,0,0,1-13.39448-.594c-1.02826-.6187-1.84838,1.05378-.82682,1.66845a15.83373,15.83373,0,0,0,14.81643.69.96232.96232,0,0,0,.58464-1.17978.93574.93574,0,0,0-1.17977-.58464Z" transform="translate(-147.74411 -156.06942)" fill="#fff"/><path d="M658.06671,596.28153c.63108.40459,1.26215.80918,1.89409,1.22949a186.08338,186.08338,0,0,1,23.91132,18.42308c.585.51491,1.17,1.04555,1.739,1.57619a196.17349,196.17349,0,0,1,42.97728,58.04679,190.50774,190.50774,0,0,1,10.608,26.93206c3.93234,12.75189,7.18139,26.89106,14.87036,37.293a32.68383,32.68383,0,0,0,2.56618,3.12676l68.88025-.44095c.156-.07956.31294-.14349.46974-.22305l2.751.10814c-.11361-.48646-.24191-.98856-.35553-1.475-.06473-.28246-.14481-.56483-.20954-.84729-.048-.18827-.0968-.37664-.12937-.54929-.01575-.06272-.03227-.12545-.04791-.17254-.03257-.17264-.08115-.32955-.11362-.48646q-1.06408-4.21287-2.19109-8.42543c-.0001-.01573-.0001-.01573-.01555-.03136-5.77943-21.38383-13.39485-42.473-23.96911-61.73592-.31834-.57945-.636-1.17462-.9858-1.75387a181.78808,181.78808,0,0,0-16.487-24.66278,160.709,160.709,0,0,0-10.78057-12.17367,133.64063,133.64063,0,0,0-33.60217-24.8361c-24.78827-12.88552-53.42164-17.69987-79.77278-9.56319C659.4,595.84873,658.74057,596.05717,658.06671,596.28153Z" transform="translate(-147.74411 -156.06942)" fill="#f2f2f2"/><path d="M658.22716,597.15477A166.38073,166.38073,0,0,1,747.947,646.44419c5.105,5.48369,9.80633,11.49074,12.97379,18.32053a41.094,41.094,0,0,1,3.45176,21.35041c-.58724,6.81862-1.97754,13.72531-.89706,20.56793,1.13889,7.21249,5.46339,13.09162,11.49525,17.06795,7.38016,4.86515,16.06831,6.78834,24.63,8.3738,9.50606,1.76035,19.40779,3.4382,27.36979,9.318.96471.71242,2.01373-.82614,1.05048-1.53748-13.85252-10.22982-32.31358-7.94632-47.4421-15.13388-7.05924-3.35385-13.15053-8.85541-14.9443-16.71925-1.56858-6.87658-.141-14,.51329-20.8989.687-7.24391.14264-14.19986-2.59726-21.00186-2.80276-6.95807-7.27917-13.16158-12.22157-18.75174a161.41917,161.41917,0,0,0-39.15126-31.819A169.33138,169.33138,0,0,0,658.35823,595.297c-1.17392-.225-1.29732,1.63425-.13107,1.85777Z" transform="translate(-147.74411 -156.06942)" fill="#fff"/><path d="M740.70672,637.79473a24.96243,24.96243,0,0,0-.77892-32.31435c-.80054-.89136-2.22328.31075-1.42168,1.2033a23.11466,23.11466,0,0,1,.66312,30.06056c-.758.928.78385,1.97317,1.53748,1.05049Z" transform="translate(-147.74411 -156.06942)" fill="#fff"/><path d="M765.1256,682.697a48.11305,48.11305,0,0,1-33.89606-8.97208c-.96719-.709-2.01651.82936-1.05048,1.53748A50.04483,50.04483,0,0,0,765.47,684.527c1.19232-.14027.84149-1.96947-.34436-1.83Z" transform="translate(-147.74411 -156.06942)" fill="#fff"/>



<path d="M816.37043,461.93466H714.70537a10.28839,10.28839,0,0,1-10.27672-10.27677V389.04176A10.2884,10.2884,0,0,1,714.70537,378.765H816.37043a10.28841,10.28841,0,0,1,10.27678,10.27678v62.61613A10.28841,10.28841,0,0,1,816.37043,461.93466Z" transform="translate(-147.74411 -156.06942)" fill="#e6e6e6"/><path d="M646.29275,231.17371H592.16726a9.63563,9.63563,0,0,1-9.625-9.62451v-47.79a9.63563,9.63563,0,0,1,9.625-9.62451h87.37256a9.63521,9.63521,0,0,1,9.62451,9.62451v14.54346A42.91981,42.91981,0,0,1,646.29275,231.17371Z" transform="translate(-147.74411 -156.06942)" fill="#fff"/><path d="M1051.33655,743.93058H755.86529a.91934.91934,0,0,1,0-1.83868h295.47126a.91934.91934,0,1,1,0,1.83868Z" transform="translate(-147.74411 -156.06942)" fill="#ccc"/></svg>